{"title":"Insidious Chapter 2 CamRip.mp4","uid":8950014,"size":500407820,"categoryP":"video","categoryS":"movies","magnet":"?xt=urn:btih:df422cab5f0cdb62375acb4621b32b04d860a0c2&amp;dn=Insidious+Chapter+2+CamRip.mp4&amp;tr=udp%3A%2F%2Ftracker.openbittorrent.com%3A80&amp;tr=udp%3A%2F%2Fopen.demonii.com%3A1337&amp;tr=udp%3A%2F%2Ftracker.coppersurfer.tk%3A6969&amp;tr=udp%3A%2F%2Fexodus.desync.com%3A6969","seeders":3,"leechers":0,"uploader":"globeplus","files":-1,"time":1379859487,"description":"Insidious Chapter 2 CamRip.mp4\n\nFormat                                   : MPEG-4\nFormat profile                           : Base Media\nCodec ID                                 : isom\nFile size                                : 477 MiB\nDuration                                 : 1h 40mn\nOverall bit rate                         : 661 Kbps\nWriting application                      : Lavf54.32.101\n\nVideo\n\nID                                       : 1\nFormat                                   : AVC\nFormat/Info                              : Advanced Video Codec\nFormat profile                           : &lt;a class=&quot;__cf_email__&quot; href=&quot;/cdn-cgi/l/email-protection&quot; data-cfemail=&quot;347c5d535c7478071a04&quot;&gt;[email&amp;#160;protected]&lt;/a&gt;&lt;script cf-hash='f9e31' type=&quot;text/javascript&quot;&gt;\n/* &lt;![CDATA[ */!function(){try{var t=&quot;currentScript&quot;in document?document.currentScript:function(){for(var t=document.getElementsByTagName(&quot;script&quot;),e=t.length;e--;)if(t[e].getAttribute(&quot;cf-hash&quot;))return t[e]}();if(t&amp;&amp;t.previousSibling){var e,r,n,i,c=t.previousSibling,a=c.getAttribute(&quot;data-cfemail&quot;);if(a){for(e=&quot;&quot;,r=parseInt(a.substr(0,2),16),n=2;a.length-n;n+=2)i=parseInt(a.substr(n,2),16)^r,e+=String.fromCharCode(i);e=document.createTextNode(e),c.parentNode.replaceChild(e,c)}}}catch(u){}}();/* ]]&gt; */&lt;/script&gt;\nFormat settings, CABAC                   : Yes\nFormat settings, ReFrames                : 4 frames\nCodec ID                                 : avc1\nCodec ID/Info                            : Advanced Video Coding\nDuration                                 : 1h 40mn\nBit rate mode                            : Variable\nBit rate                                 : 556 Kbps\nWidth                                    : 720 pixels\nHeight                                   : 400 pixels\nDisplay aspect ratio                     : 2.133\nOriginal display aspect ratio            : 2.132\nFrame rate mode                          : Constant\nFrame rate                               : 29.970 fps\nColor space                              : YUV\nChroma subsampling                       : 4:2:0\nBit depth                                : 8 bits\nScan type                                : Progressive\nBits/(Pixel*Frame)                       : 0.064\nStream size                              : 401 MiB (84%)\nWriting library                          : x264 core 128 r2216 198a7ea\n\n\nAudio\n\nID                                       : 2\nFormat                                   : AAC\nFormat/Info                              : Advanced Audio Codec\nFormat profile                           : LC\nCodec ID                                 : 40\nDuration                                 : 1h 40mn\nBit rate mode                            : Constant\nBit rate                                 : 96.0 Kbps\nChannel(s)                               : 2 channels\nChannel positions                        : Front: L R\nSampling rate                            : 48.0 KHz\nCompression mode                         : Lossy\nStream size                              : 69.2 MiB (15%)\nLanguage                                 : English\n\n\nPlot :\n\nIn 1986, a medium named Carl calls upon his friend Elise to help discover what is haunting Lorraine Lambert's son, Josh. After hypnotizing Josh, Elise attempts to find the location of Josh's &quot;friend&quot; (an old woman who appears in photographs of Josh) through playing Hot or Cold. After warnings from Josh, Elise makes her way to his bedroom closet and is scratched along the arm. As a result, Lorraine, Carl, and Elise agree that making Josh forget his astral projection abilities is the best thing to do.\n\nTwenty-five years later, Josh's wife Renai is under questioning by a police detective about the death of Elise. Unsettled by the theory that her husband is a killer, Renai rejoins with her family as they relocate to Lorraine's house. As everyone goes to bed, Renai begins witnessing strange occurrences throughout the house. Josh, who is suspected by Renai to be inhabited by the old woman, tells her not to worry and that everything will be okay.\n\n\n\n* enjoy ...\n","torrent":{"xt":"urn:btih:df422cab5f0cdb62375acb4621b32b04d860a0c2","amp;dn":"Insidious+Chapter+2+CamRip.mp4","amp;tr":["udp%3A%2F%2Ftracker.openbittorrent.com%3A80","udp%3A%2F%2Fopen.demonii.com%3A1337","udp%3A%2F%2Ftracker.coppersurfer.tk%3A6969","udp%3A%2F%2Fexodus.desync.com%3A6969"],"infoHash":"df422cab5f0cdb62375acb4621b32b04d860a0c2","infoHashBuffer":{"type":"Buffer","data":[223,66,44,171,95,12,219,98,55,90,203,70,33,179,43,4,216,96,160,194]},"announce":[],"urlList":[]}}